<svg width="342" height="145" viewBox="0 0 342 145" fill="none" xmlns="http://www.w3.org/2000/svg">
<g filter="url(#filter0_d_88_6)">
<path d="M23.4931 29.4428C23.4931 23.9199 27.9702 19.4427 33.4931 19.4427H308.294C313.817 19.4427 318.294 23.9199 318.294 29.4427V107.71C318.294 113.232 313.817 117.71 308.294 117.71H33.4931C27.9702 117.71 23.4931 113.232 23.4931 107.71V29.4428Z" fill="#F2F2F2"/>
</g>
<g clip-path="url(#clip0_88_6)">
<path d="M131.194 59.3956C132.383 59.3956 133.345 59.5579 134.076 59.8833C134.807 60.2078 135.172 60.6127 135.172 61.1004C135.172 61.6958 135.022 62.3712 134.725 63.1281C134.427 63.8854 134.143 64.5067 133.872 64.9935C133.764 65.1021 133.629 65.1152 133.467 65.0345C133.304 64.9529 133.223 64.805 133.223 64.5882C133.385 64.2108 133.467 63.6694 133.467 62.9654C133.467 62.2089 133.264 61.586 132.858 61.1C132.452 60.6131 131.896 60.3701 131.194 60.3701C130.272 60.3701 129.529 60.6537 128.961 61.2217C128.393 61.7893 128.108 62.588 128.108 63.6137C128.108 64.48 128.338 65.305 128.798 66.0881C129.273 66.8973 129.788 67.6826 130.341 68.4412C130.922 69.245 131.45 70.085 131.924 70.9562C132.411 71.8487 132.655 72.8626 132.655 73.9981C132.655 75.9443 131.87 77.4585 130.301 78.5396C128.731 79.6227 126.674 80.1624 124.131 80.1624C122.29 80.1624 120.842 79.8653 119.787 79.2703C118.731 78.676 118.204 78.0277 118.204 77.3237C118.204 77.1085 118.285 76.8102 118.447 76.4311C118.61 76.0537 118.825 75.6484 119.097 75.214C119.377 74.7689 119.675 74.3358 119.99 73.9158C120.315 73.4838 120.666 73.133 121.045 72.8626C121.208 72.754 121.357 72.7802 121.492 72.9429C121.627 73.1052 121.641 73.2674 121.534 73.4297C121.208 73.7535 120.965 74.0924 120.802 74.444C120.64 74.7952 120.559 75.2693 120.559 75.8631C120.559 76.836 120.883 77.6351 121.534 78.2552C122.183 78.8781 123.021 79.1887 124.05 79.1887C125.457 79.1887 126.553 78.7965 127.338 78.0126C128.122 77.2294 128.515 76.2684 128.515 75.1325C128.515 74.1055 128.285 73.1453 127.825 72.2532C127.366 71.3643 126.865 70.4979 126.323 69.6571C125.786 68.8271 125.285 67.9743 124.821 67.1011C124.365 66.2535 124.128 65.3055 124.131 64.3432C124.131 62.9383 124.726 61.7614 125.917 60.8156C127.106 59.8714 128.865 59.3956 131.194 59.3956ZM153.357 59.8025C153.627 59.9107 153.736 60.0603 153.682 60.2492C153.627 60.4389 153.384 60.5869 152.951 60.6951C152.139 60.6951 151.206 60.7229 150.151 60.7758C149.094 60.8299 147.971 60.9119 146.781 61.0188C145.697 63.6698 144.805 66.2508 144.102 68.7662C143.397 71.2803 143.047 73.3224 143.047 74.8907C143.047 76.7287 143.749 77.6474 145.157 77.6474C146.564 77.6474 148.133 76.4315 149.867 73.9985C150.028 73.8899 150.177 73.8899 150.312 73.9985C150.447 74.1067 150.488 74.2952 150.435 74.5661C149.517 76.0767 148.335 77.4096 146.944 78.5006C145.535 79.6096 144.155 80.1628 142.803 80.1628C141.395 80.1628 140.353 79.8268 139.677 79.149C139 78.4728 138.662 77.5405 138.662 76.35C138.662 74.7829 139.04 72.6187 139.798 69.8607C140.556 67.1028 141.53 64.2923 142.722 61.4245C141.313 61.5868 140.015 61.8052 138.825 62.0741C138.553 62.0216 138.485 61.8856 138.621 61.6684C138.756 61.4532 139 61.2221 139.352 60.9791C139.703 60.7348 140.123 60.5197 140.61 60.3295C141.097 60.141 141.557 60.0459 141.99 60.0459H142.64C142.856 60.0459 143.073 60.0193 143.29 59.9652C143.977 58.4302 144.708 56.9152 145.482 55.4221C146.239 53.9616 146.996 52.6379 147.755 51.447C148.079 51.0692 148.526 50.7311 149.094 50.4328C149.662 50.1369 150.217 49.9062 150.758 49.7435C151.299 49.5812 151.746 49.4874 152.099 49.4595C152.45 49.4333 152.598 49.5283 152.546 49.7435C151.624 51.1507 150.719 52.7182 149.825 54.4484C148.909 56.2293 148.056 58.042 147.268 59.8833C148.296 59.83 149.338 59.8025 150.393 59.8025H153.357Z" fill="#606060"/>
<path d="M202.615 19.2164C203.427 19.2164 204.089 19.4196 204.604 19.8249C205.117 20.2302 205.469 20.7716 205.659 21.4478C205.848 22.1235 205.875 22.8944 205.74 23.7595C205.605 24.6254 205.294 25.4905 204.807 26.3552C204.698 26.4633 204.563 26.4633 204.401 26.3552C204.239 26.2466 204.13 26.1121 204.076 25.9495C204.184 25.3003 203.955 24.7602 203.386 24.327C202.818 23.8951 201.937 23.6779 200.747 23.6779C198.528 23.6779 196.295 24.5028 194.05 26.1523C191.803 27.8026 189.624 29.9799 187.514 32.6821C185.403 35.3868 183.427 38.4972 181.587 42.0113C179.748 45.5229 178.148 49.1544 176.797 52.8809C175.444 56.6122 174.374 60.3168 173.59 63.994C172.805 67.6724 172.414 71.0242 172.414 74.0535C172.414 75.6746 172.873 76.4865 173.794 76.4865C174.443 76.4865 175.079 76.216 175.701 75.6746C176.323 75.1345 177.042 74.3239 177.853 73.2412C178.015 73.1347 178.164 73.1478 178.299 73.2822C178.434 73.4187 178.475 73.5937 178.422 73.8088C177.338 75.4316 176.067 76.7836 174.605 77.8646C173.144 78.9473 171.817 79.4875 170.627 79.4875C169.598 79.4875 168.882 79.1899 168.476 78.5945C168.071 78.0003 167.867 77.2442 167.867 76.3242C167.867 73.7822 168.407 70.6041 169.491 66.793C170.573 62.9801 172.02 58.9518 173.835 54.7058C175.648 50.461 177.745 46.2294 180.127 42.0113C182.508 37.7932 184.985 33.9947 187.556 30.6147C190.126 27.235 192.712 24.4901 195.309 22.3805C197.905 20.2704 200.341 19.2164 202.615 19.2164H202.615ZM130.53 118.894C129.718 118.894 129.056 118.691 128.541 118.286C128.027 117.88 127.675 117.339 127.485 116.663C127.297 115.986 127.27 115.216 127.404 114.351C127.54 113.485 127.851 112.621 128.338 111.755C128.447 111.646 128.581 111.646 128.744 111.755C128.906 111.863 129.014 111.998 129.068 112.161C128.961 112.81 129.19 113.35 129.758 113.784C130.326 114.215 131.207 114.432 132.397 114.432C134.617 114.432 136.85 113.607 139.095 111.957C141.341 110.309 143.52 108.132 145.631 105.429C147.742 102.724 149.718 99.6146 151.558 96.0997C153.397 92.5879 154.997 88.9563 156.347 85.2296C157.701 81.4984 158.77 77.7941 159.555 74.1166C160.339 70.4386 160.731 67.0864 160.731 64.0579C160.731 62.4351 160.272 61.6245 159.351 61.6245C158.701 61.6245 158.065 61.8938 157.443 62.4351C156.822 62.9748 156.103 63.7875 155.291 64.8693C155.129 64.9759 154.981 64.9628 154.846 64.8284C154.711 64.6923 154.67 64.5165 154.723 64.3001C155.807 62.6789 157.078 61.3258 158.539 60.2443C160 59.1632 161.327 58.6231 162.518 58.6231C163.546 58.6231 164.263 58.919 164.668 59.5144C165.074 60.1099 165.278 60.8668 165.278 61.7868C165.278 64.3284 164.737 67.5048 163.654 71.318C162.572 75.1308 161.125 79.1588 159.31 83.4048C157.497 87.6495 155.4 91.8811 153.018 96.0993C150.637 100.317 148.16 104.116 145.589 107.496C143.019 110.876 140.433 113.621 137.836 115.729C135.239 117.839 132.803 118.894 130.53 118.894Z" fill="#B3D107"/>
<path d="M185.374 80.1624C183.1 80.1624 181.964 78.9187 181.964 76.4311C181.964 75.5665 182.057 74.5657 182.248 73.4306C182.437 72.2938 182.736 71.1193 183.141 69.9017C183.547 68.6842 184.02 67.4552 184.561 66.2098C185.103 64.9647 185.755 63.7705 186.51 62.6417C185.927 63.0117 185.359 63.4041 184.806 63.8178C184.289 64.2016 183.801 64.6216 183.344 65.0747C183.182 65.1845 183.032 65.1435 182.897 64.9534C182.762 64.7644 182.748 64.5886 182.857 64.4263C183.777 63.4522 185.09 62.4531 186.795 61.4241C188.499 60.3984 190.136 59.5862 191.707 58.9911C191.977 58.9911 192.18 59.0596 192.315 59.1944C192.45 59.3304 192.464 59.5058 192.356 59.721C190.632 61.9793 189.225 64.463 188.175 67.1028C187.12 69.7534 186.592 72.3229 186.592 74.8091C186.592 76.3787 187.08 77.1614 188.053 77.1614C188.756 77.1614 189.622 76.6885 190.651 75.7423C191.679 74.7956 192.762 73.5523 193.899 72.0102C195.036 70.4693 196.185 68.7252 197.35 66.779C198.503 64.8514 199.573 62.8753 200.557 60.8561C200.719 60.5328 201.193 60.2078 201.977 59.8833C202.762 59.5579 203.56 59.3956 204.372 59.3956C205.184 59.3956 205.428 59.6136 205.103 60.0455C204.403 61.338 203.74 62.6498 203.114 63.9797C202.563 65.1511 202.089 66.3567 201.694 67.5892C201.317 68.7685 201.032 69.9751 200.841 71.1984C200.65 72.4159 200.557 73.7535 200.557 75.2132C200.557 76.9454 201.016 77.8089 201.937 77.8089C202.857 77.8089 203.885 76.9983 205.022 75.3755C205.185 75.2689 205.347 75.2689 205.509 75.3755C205.672 75.4853 205.725 75.648 205.672 75.8627C204.751 77.2688 203.736 78.3367 202.627 79.0674C201.517 79.7969 200.503 80.1616 199.583 80.1616C197.309 80.1616 196.173 78.8371 196.173 76.1873C196.173 73.4293 196.659 70.6988 197.634 67.9937C195.577 71.725 193.412 74.6862 191.139 76.8766C188.865 79.0682 186.943 80.1624 185.374 80.1624ZM218.903 59.3956C220.092 59.3956 221.055 59.5579 221.786 59.8833C222.516 60.2078 222.881 60.6127 222.881 61.1004C222.881 61.6958 222.732 62.3712 222.435 63.1281C222.136 63.8854 221.853 64.5067 221.582 64.9935C221.473 65.1021 221.339 65.1152 221.176 65.0345C221.014 64.9529 220.933 64.805 220.933 64.5882C221.095 64.2108 221.176 63.6694 221.176 62.9654C221.176 62.2089 220.974 61.586 220.568 61.1C220.162 60.6131 219.606 60.3701 218.903 60.3701C217.983 60.3701 217.239 60.6537 216.671 61.2217C216.102 61.7897 215.819 62.588 215.819 63.6137C215.819 64.48 216.048 65.305 216.508 66.0881C216.984 66.8973 217.498 67.6826 218.051 68.4412C218.632 69.245 219.161 70.085 219.634 70.9562C220.122 71.8487 220.365 72.8626 220.365 73.9981C220.365 75.9443 219.58 77.4585 218.011 78.5396C216.44 79.6227 214.383 80.1624 211.84 80.1624C209.999 80.1624 208.552 79.8653 207.497 79.2703C206.441 78.676 205.914 78.0277 205.914 77.3237C205.914 77.1085 205.995 76.8102 206.157 76.4311C206.319 76.0537 206.535 75.6484 206.807 75.214C207.086 74.7689 207.384 74.3358 207.7 73.9158C208.024 73.4838 208.376 73.133 208.755 72.8626C208.918 72.754 209.066 72.7802 209.202 72.9429C209.336 73.1052 209.35 73.2675 209.243 73.4297C208.918 73.7535 208.674 74.0924 208.512 74.444C208.349 74.7952 208.268 75.2693 208.268 75.8632C208.268 76.836 208.593 77.6351 209.243 78.2552C209.892 78.8781 210.73 79.1887 211.759 79.1887C213.166 79.1887 214.262 78.7965 215.048 78.0126C215.831 77.2294 216.225 76.2684 216.225 75.1325C216.225 74.1055 215.994 73.1453 215.535 72.2532C215.076 71.3643 214.575 70.4979 214.033 69.6571C213.496 68.827 212.994 67.9742 212.53 67.1011C212.074 66.2535 211.837 65.3055 211.84 64.3432C211.84 62.9384 212.435 61.7614 213.626 60.8156C214.816 59.8714 216.574 59.3956 218.903 59.3956Z" fill="#606060"/>
</g>
<defs>
<filter id="filter0_d_88_6" x="0.493073" y="0.442749" width="340.801" height="144.267" filterUnits="userSpaceOnUse" color-interpolation-filters="sRGB">
<feFlood flood-opacity="0" result="BackgroundImageFix"/>
<feColorMatrix in="SourceAlpha" type="matrix" values="0 0 0 0 0 0 0 0 0 0 0 0 0 0 0 0 0 0 127 0" result="hardAlpha"/>
<feOffset dy="4"/>
<feGaussianBlur stdDeviation="11.5"/>
<feComposite in2="hardAlpha" operator="out"/>
<feColorMatrix type="matrix" values="0 0 0 0 0 0 0 0 0 0 0 0 0 0 0 0 0 0 0.25 0"/>
<feBlend mode="normal" in2="BackgroundImageFix" result="effect1_dropShadow_88_6"/>
<feBlend mode="normal" in="SourceGraphic" in2="effect1_dropShadow_88_6" result="shape"/>
</filter>
<clipPath id="clip0_88_6">
<rect width="105" height="100" fill="white" transform="translate(118 19)"/>
</clipPath>
</defs>
</svg>
